<?xml version="1.0" encoding="UTF-8" standalone="no"?>
<!-- Created with Inkscape (http://www.inkscape.org/) -->

<svg
   xmlns:dc="http://purl.org/dc/elements/1.1/"
   xmlns:cc="http://creativecommons.org/ns#"
   xmlns:rdf="http://www.w3.org/1999/02/22-rdf-syntax-ns#"
   xmlns:svg="http://www.w3.org/2000/svg"
   xmlns="http://www.w3.org/2000/svg"
   xmlns:sodipodi="http://sodipodi.sourceforge.net/DTD/sodipodi-0.dtd"
   xmlns:inkscape="http://www.inkscape.org/namespaces/inkscape"
   width="101.69499mm"
   height="35.400002mm"
   viewBox="0 0 360.33658 125.43308"
   id="svg4251"
   version="1.1"
   inkscape:version="0.91 r13725"
   sodipodi:docname="sticker.svg">
  <defs
     id="defs4253" />
  <sodipodi:namedview
     id="base"
     pagecolor="#ffffff"
     bordercolor="#666666"
     borderopacity="1.0"
     inkscape:pageopacity="0.0"
     inkscape:pageshadow="2"
     inkscape:zoom="2"
     inkscape:cx="250.74324"
     inkscape:cy="1.7912536"
     inkscape:document-units="px"
     inkscape:current-layer="layer1"
     showgrid="false"
     showguides="true"
     inkscape:guide-bbox="true"
     inkscape:window-width="1920"
     inkscape:window-height="1181"
     inkscape:window-x="-4"
     inkscape:window-y="-4"
     inkscape:window-maximized="1"
     fit-margin-top="5"
     fit-margin-left="5"
     fit-margin-right="5"
     fit-margin-bottom="5" />
  <metadata
     id="metadata4256">
    <rdf:RDF>
      <cc:Work
         rdf:about="">
        <dc:format>image/svg+xml</dc:format>
        <dc:type
           rdf:resource="http://purl.org/dc/dcmitype/StillImage" />
        <dc:title></dc:title>
      </cc:Work>
    </rdf:RDF>
  </metadata>
  <g
     inkscape:label="Ebene 1"
     inkscape:groupmode="layer"
     id="layer1"
     transform="translate(-131.52278,-307.90079)">
    <g
       id="g5148"
       transform="matrix(2.8664581,0,0,2.8664581,-278.54894,-775.73237)">
      <g
         transform="matrix(0.5742499,0,0,0.5742499,73.933516,169.85048)"
         id="text4921"
         style="font-style:normal;font-variant:normal;font-weight:500;font-stretch:normal;font-size:25.14790344px;line-height:125%;font-family:'Century Schoolbook L';-inkscape-font-specification:'Century Schoolbook L Medium';letter-spacing:0px;word-spacing:0px;fill:#4dc6f4;fill-opacity:1;stroke:none;stroke-width:1px;stroke-linecap:butt;stroke-linejoin:miter;stroke-opacity:1">
        <path
           inkscape:connector-curvature="0"
           id="path4948"
           style="font-style:italic;font-variant:normal;font-weight:900;font-stretch:normal;font-family:Lato;-inkscape-font-specification:'Lato Heavy Italic';fill:#4dc6f4;fill-opacity:1"
           d="m 183.82649,381.97663 q 0.88017,0 1.4963,-0.26406 0.61612,-0.27662 0.99334,-0.72928 0.38979,-0.45267 0.55325,-1.05622 0.17604,-0.60355 0.17604,-1.26997 0,-0.51553 -0.15089,-0.93047 -0.15089,-0.42751 -0.47781,-0.71671 -0.31435,-0.30178 -0.80473,-0.46524 -0.47781,-0.16346 -1.13166,-0.16346 l -1.45858,0 -0.69156,5.59541 1.4963,0 z m 1.03106,-8.65088 q 1.68491,0 2.86686,0.36464 1.19453,0.35207 1.94896,0.98077 0.75444,0.6287 1.09394,1.4963 0.35207,0.85503 0.35207,1.86095 0,1.00591 -0.27663,1.92381 -0.26405,0.90533 -0.77958,1.67234 -0.51553,0.75443 -1.2574,1.34541 -0.74186,0.5784 -1.69748,0.95562 0.37722,0.21376 0.69157,0.52811 0.31434,0.30177 0.5281,0.74186 l 2.66568,6.45044 -3.69674,0 q -0.51553,0 -0.8676,-0.20119 -0.3395,-0.21375 -0.49039,-0.5784 l -1.98668,-5.41937 q -0.15089,-0.3395 -0.37722,-0.49039 -0.22633,-0.15088 -0.679,-0.15088 l -0.91789,0 -0.84246,6.84023 -4.07396,0 2.23816,-18.32025 5.55769,0 z" />
        <path
           inkscape:connector-curvature="0"
           id="path4950"
           style="font-style:italic;font-variant:normal;font-weight:900;font-stretch:normal;font-family:Lato;-inkscape-font-specification:'Lato Heavy Italic';fill:#4dc6f4;fill-opacity:1"
           d="m 209.61016,373.32575 -2.26331,18.32025 -4.12426,0 0.9682,-7.79585 -6.6139,0 -0.96819,7.79585 -4.12426,0 2.26331,-18.32025 4.12426,0 -0.95562,7.73298 6.6139,0 0.95562,-7.73298 4.12425,0 z" />
        <path
           inkscape:connector-curvature="0"
           id="path4952"
           style="font-style:italic;font-variant:normal;font-weight:900;font-stretch:normal;font-family:Lato;-inkscape-font-specification:'Lato Heavy Italic';fill:#4dc6f4;fill-opacity:1"
           d="m 216.70462,376.48181 -0.54068,4.42603 5.18047,0 -0.40237,3.0429 -5.15532,0 -0.56582,4.53919 6.82765,0 -0.40237,3.15607 -10.93933,0 2.26331,-18.32025 10.91419,0 -0.40237,3.15606 -6.77736,0 z" />
        <path
           inkscape:connector-curvature="0"
           id="path4954"
           style="font-style:italic;font-variant:normal;font-weight:900;font-stretch:normal;font-family:Lato;-inkscape-font-specification:'Lato Heavy Italic';fill:#4dc6f4;fill-opacity:1"
           d="m 228.28916,391.646 -4.12426,0 2.23817,-18.32025 4.12425,0 -2.23816,18.32025 z" />
        <path
           inkscape:connector-curvature="0"
           id="path4956"
           style="font-style:italic;font-variant:normal;font-weight:900;font-stretch:normal;font-family:Lato;-inkscape-font-specification:'Lato Heavy Italic';fill:#4dc6f4;fill-opacity:1"
           d="m 248.75641,373.32575 -2.26331,18.32025 -2.13757,0 q -0.47781,0 -0.77959,-0.15089 -0.2892,-0.16346 -0.55325,-0.52811 l -6.40014,-11.31655 q -0.0377,0.72929 -0.11317,1.30769 l -1.2574,10.68786 -3.62129,0 2.26331,-18.32025 2.16272,0 q 0.26405,0 0.44009,0.0251 0.1886,0.0126 0.32692,0.088 0.13831,0.0629 0.25148,0.18861 0.11316,0.12574 0.2389,0.32693 l 6.42529,11.31655 q 0.0377,-0.44009 0.0755,-0.84245 0.0377,-0.40237 0.088,-0.75444 l 1.23225,-10.34836 3.6213,0 z" />
        <path
           inkscape:connector-curvature="0"
           id="path4958"
           style="font-style:italic;font-variant:normal;font-weight:900;font-stretch:normal;font-family:Lato;-inkscape-font-specification:'Lato Heavy Italic';fill:#4dc6f4;fill-opacity:1"
           d="m 271.25396,373.32575 -2.26331,18.32025 -3.59615,0 1.28254,-10.66271 q 0.0503,-0.3395 0.12574,-0.74187 0.0754,-0.41494 0.17603,-0.85503 l -5.50739,9.45561 q -0.26405,0.41495 -0.66642,0.6287 -0.38979,0.21376 -0.8676,0.21376 l -0.55325,0 q -0.47781,0 -0.82988,-0.21376 -0.35208,-0.21375 -0.50296,-0.6287 l -3.21893,-9.49333 q -0.0126,0.42752 -0.0377,0.82988 -0.0251,0.40237 -0.0629,0.74187 l -1.25739,10.72558 -3.6213,0 2.26331,-18.32025 3.11834,0 q 0.26405,0 0.44009,0.0251 0.18861,0.0251 0.32692,0.088 0.13832,0.0629 0.25148,0.18861 0.12574,0.12574 0.26406,0.32693 l 3.21893,9.64422 q 0.13831,0.38979 0.25148,0.80473 0.11316,0.40237 0.21375,0.81731 0.18861,-0.41494 0.40237,-0.81731 0.21376,-0.41494 0.46524,-0.80473 l 5.60798,-9.64422 q 0.18861,-0.20119 0.33949,-0.32693 0.15089,-0.12574 0.30178,-0.18861 0.15089,-0.0629 0.3395,-0.088 0.18861,-0.0251 0.45266,-0.0251 l 3.14349,0 z" />
        <path
           inkscape:connector-curvature="0"
           id="path4960"
           style="font-style:italic;font-variant:normal;font-weight:900;font-stretch:normal;font-family:Lato;-inkscape-font-specification:'Lato Heavy Italic';fill:#4dc6f4;fill-opacity:1"
           d="m 282.21923,384.66745 -0.89275,-5.23076 q -0.10059,-0.49039 -0.22633,-1.1568 -0.11316,-0.679 -0.22633,-1.45858 -0.30177,0.79216 -0.60355,1.47115 -0.2892,0.66642 -0.50296,1.16938 l -2.15014,5.20561 4.60206,0 z m 5.44452,6.97855 -3.16863,0 q -0.52811,0 -0.82988,-0.23891 -0.2892,-0.25148 -0.40237,-0.65384 l -0.56583,-3.29438 -6.2241,0 -1.35799,3.29438 q -0.17604,0.33949 -0.56583,0.61612 -0.37722,0.27663 -0.8676,0.27663 l -3.21893,0 8.75147,-18.32025 4.1997,0 4.24999,18.32025 z" />
        <path
           inkscape:connector-curvature="0"
           id="path4962"
           style="font-style:italic;font-variant:normal;font-weight:900;font-stretch:normal;font-family:Lato;-inkscape-font-specification:'Lato Heavy Italic';fill:#4dc6f4;fill-opacity:1"
           d="m 293.27095,391.646 -4.12426,0 2.23817,-18.32025 4.12425,0 -2.23816,18.32025 z" />
        <path
           inkscape:connector-curvature="0"
           id="path4964"
           style="font-style:italic;font-variant:normal;font-weight:900;font-stretch:normal;font-family:Lato;-inkscape-font-specification:'Lato Heavy Italic';fill:#4dc6f4;fill-opacity:1"
           d="m 313.7382,373.32575 -2.26331,18.32025 -2.13758,0 q -0.47781,0 -0.77958,-0.15089 -0.2892,-0.16346 -0.55325,-0.52811 l -6.40015,-11.31655 q -0.0377,0.72929 -0.11316,1.30769 l -1.2574,10.68786 -3.6213,0 2.26332,-18.32025 2.16272,0 q 0.26405,0 0.44008,0.0251 0.18861,0.0126 0.32693,0.088 0.13831,0.0629 0.25148,0.18861 0.11316,0.12574 0.2389,0.32693 l 6.42529,11.31655 q 0.0377,-0.44009 0.0754,-0.84245 0.0377,-0.40237 0.088,-0.75444 l 1.23225,-10.34836 3.6213,0 z" />
      </g>
      <g
         transform="translate(23.801719,-59.062357)"
         id="text4925"
         style="font-style:normal;font-variant:normal;font-weight:500;font-stretch:normal;font-size:25.14790344px;line-height:125%;font-family:'Century Schoolbook L';-inkscape-font-specification:'Century Schoolbook L Medium';letter-spacing:0px;word-spacing:0px;fill:#ec008c;fill-opacity:1;stroke:none;stroke-width:1px;stroke-linecap:butt;stroke-linejoin:miter;stroke-opacity:1">
        <path
           inkscape:connector-curvature="0"
           id="path4937"
           style="font-style:italic;font-variant:normal;font-weight:900;font-stretch:normal;font-family:Lato;-inkscape-font-specification:'Lato Heavy Italic';fill:#ec008c;fill-opacity:1"
           d="m 156.0473,464.80915 q 0.88017,0 1.4963,-0.26406 0.61612,-0.27662 0.99334,-0.72929 0.38979,-0.45266 0.55325,-1.05621 0.17604,-0.60355 0.17604,-1.26997 0,-0.51553 -0.15089,-0.93047 -0.15089,-0.42751 -0.47781,-0.71671 -0.31435,-0.30178 -0.80473,-0.46524 -0.47781,-0.16346 -1.13166,-0.16346 l -1.45858,0 -0.69156,5.59541 1.4963,0 z m 1.03106,-8.65088 q 1.68491,0 2.86686,0.36464 1.19453,0.35207 1.94896,0.98077 0.75444,0.6287 1.09394,1.4963 0.35207,0.85503 0.35207,1.86095 0,1.00591 -0.27663,1.92381 -0.26405,0.90533 -0.77958,1.67234 -0.51553,0.75443 -1.2574,1.34541 -0.74186,0.5784 -1.69748,0.95562 0.37722,0.21376 0.69157,0.52811 0.31434,0.30177 0.5281,0.74186 l 2.66568,6.45044 -3.69674,0 q -0.51553,0 -0.8676,-0.20119 -0.3395,-0.21375 -0.49039,-0.5784 l -1.98668,-5.41937 q -0.15089,-0.3395 -0.37722,-0.49039 -0.22633,-0.15088 -0.679,-0.15088 l -0.91789,0 -0.84246,6.84023 -4.07396,0 2.23816,-18.32025 5.55769,0 z" />
        <path
           inkscape:connector-curvature="0"
           id="path4939"
           style="font-style:italic;font-variant:normal;font-weight:900;font-stretch:normal;font-family:Lato;-inkscape-font-specification:'Lato Heavy Italic';fill:#ec008c;fill-opacity:1"
           d="m 182.341,464.14273 q 0,1.48372 -0.35207,2.84171 -0.3395,1.35799 -0.98077,2.52736 -0.62869,1.16938 -1.53402,2.125 -0.89275,0.95562 -2.01183,1.63462 -1.11908,0.66642 -2.42677,1.04363 -1.3077,0.36465 -2.7537,0.36465 -1.81065,0 -3.25665,-0.6287 -1.43343,-0.64127 -2.43935,-1.7352 -1.00592,-1.10651 -1.5466,-2.59024 -0.5281,-1.4963 -0.5281,-3.21893 0,-1.48373 0.3395,-2.84171 0.35207,-1.37056 0.98076,-2.53994 0.64127,-1.16938 1.5466,-2.125 0.90532,-0.95562 2.02441,-1.62204 1.11908,-0.67899 2.42677,-1.04364 1.30769,-0.37722 2.76627,-0.37722 1.79807,0 3.2315,0.64128 1.44601,0.62869 2.43935,1.7352 1.00592,1.10651 1.53402,2.60281 0.54068,1.4963 0.54068,3.20636 z m -4.1997,0.10059 q 0,-1.13166 -0.27662,-2.04956 -0.26406,-0.93047 -0.79216,-1.58431 -0.51554,-0.66642 -1.26997,-1.01849 -0.75444,-0.36465 -1.71006,-0.36465 -1.2574,0 -2.25074,0.52811 -0.99334,0.51553 -1.69748,1.45858 -0.69157,0.94304 -1.06879,2.27588 -0.36464,1.32027 -0.36464,2.92973 0,1.13166 0.26405,2.04956 0.26405,0.9179 0.76701,1.57174 0.51553,0.65385 1.26997,1.01849 0.75444,0.35207 1.72263,0.35207 1.2574,0 2.25074,-0.51553 1.00592,-0.51553 1.69748,-1.45858 0.70414,-0.94305 1.08136,-2.26331 0.37722,-1.32027 0.37722,-2.92973 z" />
        <path
           inkscape:connector-curvature="0"
           id="path4941"
           style="font-style:italic;font-variant:normal;font-weight:900;font-stretch:normal;font-family:Lato;-inkscape-font-specification:'Lato Heavy Italic';fill:#ec008c;fill-opacity:1"
           d="m 191.51409,471.30988 q 0.69157,0 1.19453,-0.10059 0.51553,-0.11317 0.88017,-0.27663 0.36465,-0.16346 0.61613,-0.35207 0.25148,-0.20118 0.45266,-0.36464 0.20118,-0.16347 0.37722,-0.26406 0.17603,-0.11316 0.37722,-0.11316 0.20118,0 0.32692,0.0754 0.13831,0.0629 0.20118,0.15089 l 1.43343,1.72263 q -1.19452,1.42086 -2.84171,2.16272 -1.63461,0.72929 -3.72189,0.72929 -1.73521,0 -3.08062,-0.60355 -1.33284,-0.61612 -2.25074,-1.68491 -0.91789,-1.06879 -1.3957,-2.52736 -0.46524,-1.47116 -0.46524,-3.16864 0,-1.57174 0.35207,-2.98003 0.35207,-1.40828 0.99334,-2.60281 0.64127,-1.19452 1.53402,-2.15014 0.90533,-0.95562 1.99926,-1.62204 1.09394,-0.66642 2.35133,-1.01849 1.2574,-0.36465 2.62796,-0.36465 1.03106,0 1.87352,0.20119 0.85503,0.18861 1.53402,0.54068 0.69157,0.33949 1.23225,0.8173 0.54068,0.47781 0.94304,1.05622 l -1.43343,1.65976 q -0.15089,0.17603 -0.35207,0.31435 -0.20118,0.13831 -0.5281,0.13831 -0.21376,0 -0.3898,-0.10059 -0.17603,-0.10059 -0.36464,-0.23891 -0.17604,-0.15088 -0.40237,-0.32692 -0.22633,-0.17603 -0.54068,-0.31435 -0.31435,-0.15089 -0.75444,-0.25148 -0.42751,-0.10059 -1.01849,-0.10059 -1.1568,0 -2.16272,0.49039 -0.99334,0.49038 -1.7352,1.40828 -0.72929,0.90532 -1.14423,2.21301 -0.41494,1.29512 -0.41494,2.90459 0,1.16937 0.27663,2.08727 0.2892,0.9179 0.77958,1.55917 0.49039,0.6287 1.16938,0.9682 0.67899,0.32692 1.47115,0.32692 z" />
        <path
           inkscape:connector-curvature="0"
           id="path4943"
           style="font-style:italic;font-variant:normal;font-weight:900;font-stretch:normal;font-family:Lato;-inkscape-font-specification:'Lato Heavy Italic';fill:#ec008c;fill-opacity:1"
           d="m 204.44483,463.65234 0.60355,0 q 0.88018,0 1.33284,-0.60355 l 4.35059,-6.07322 q 0.36464,-0.47781 0.80473,-0.64127 0.45266,-0.17603 1.05621,-0.17603 l 3.54586,0 -5.75887,7.4815 q -0.59098,0.72929 -1.2574,1.06879 0.42751,0.17603 0.74186,0.47781 0.32693,0.30177 0.56583,0.79215 l 3.87278,8.5 -3.64645,0 q -0.35207,0 -0.59097,-0.0503 -0.23891,-0.0503 -0.41494,-0.15089 -0.16347,-0.10059 -0.27663,-0.2389 -0.11317,-0.13832 -0.20118,-0.31435 l -2.84172,-6.43786 q -0.15088,-0.36465 -0.46523,-0.50296 -0.31435,-0.15089 -0.84246,-0.15089 l -0.94304,0 -0.9682,7.84615 -4.07396,0 2.23816,-18.32025 4.09911,0 -0.93047,7.49407 z" />
        <path
           inkscape:connector-curvature="0"
           id="path4945"
           style="font-style:italic;font-variant:normal;font-weight:900;font-stretch:normal;font-family:Lato;-inkscape-font-specification:'Lato Heavy Italic';fill:#ec008c;fill-opacity:1"
           d="m 226.96753,459.82986 q -0.22633,0.2892 -0.44009,0.44009 -0.21376,0.13831 -0.51553,0.13831 -0.2892,0 -0.5784,-0.18861 -0.28921,-0.1886 -0.65385,-0.41494 -0.35207,-0.22633 -0.81731,-0.41494 -0.46523,-0.18861 -1.09393,-0.18861 -0.5784,0 -1.01849,0.16347 -0.42752,0.16346 -0.71672,0.45266 -0.2892,0.2892 -0.44008,0.67899 -0.13832,0.38979 -0.13832,0.85503 0,0.50296 0.27663,0.84245 0.2892,0.3395 0.75444,0.60355 0.47781,0.25148 1.06878,0.46524 0.59098,0.21376 1.2071,0.46524 0.6287,0.25148 1.21967,0.5784 0.60355,0.32692 1.06879,0.81731 0.47781,0.49038 0.75444,1.18195 0.2892,0.69156 0.2892,1.65976 0,1.38313 -0.47781,2.60281 -0.47781,1.21967 -1.37056,2.13757 -0.89275,0.90532 -2.1753,1.446 -1.26997,0.52811 -2.86686,0.52811 -0.79216,0 -1.59689,-0.17604 -0.79216,-0.17603 -1.53402,-0.49038 -0.72929,-0.32692 -1.35799,-0.76701 -0.6287,-0.44009 -1.06878,-0.98077 l 1.45857,-1.91124 q 0.17604,-0.21376 0.42752,-0.35207 0.26405,-0.13831 0.5281,-0.13831 0.35208,0 0.679,0.25147 0.33949,0.23891 0.74186,0.54068 0.40237,0.28921 0.93047,0.54068 0.54068,0.23891 1.32027,0.23891 1.14423,0 1.76035,-0.61612 0.6287,-0.6287 0.6287,-1.84838 0,-0.56582 -0.2892,-0.93047 -0.27663,-0.36464 -0.74186,-0.61612 -0.45267,-0.25148 -1.04364,-0.44009 -0.59098,-0.20118 -1.2071,-0.42751 -0.61613,-0.22634 -1.2071,-0.52811 -0.59098,-0.31435 -1.05621,-0.80473 -0.45267,-0.50296 -0.74187,-1.21968 -0.27662,-0.72929 -0.27662,-1.7855 0,-1.21967 0.45266,-2.33875 0.46524,-1.13166 1.32026,-1.99926 0.85503,-0.8676 2.07471,-1.38314 1.21967,-0.51553 2.74112,-0.51553 0.77958,0 1.50887,0.16346 0.74186,0.16347 1.38314,0.45267 0.64127,0.2892 1.16937,0.69156 0.52811,0.3898 0.89275,0.85503 l -1.23224,1.68491 z" />
      </g>
      <g
         style="fill:#cce310;fill-opacity:1"
         transform="matrix(1.0004557,0,-0.12284051,1.0004557,-63.035865,36.201326)"
         id="g5032">
        <g
           style="fill:#cce310;fill-opacity:1"
           id="g5028"
           transform="translate(33.55647,6.0767002)">
          <path
             sodipodi:nodetypes="sccsccs"
             inkscape:connector-curvature="0"
             id="path5013"
             d="m 230.50586,341.78711 c -1.46079,0 -2.48633,0.86884 -2.48633,2.28711 0.012,4.66233 -4.8e-4,24.72545 0,28.89343 l 3.01563,0 c 1.46079,0 2.48632,-0.86884 2.48632,-2.28711 -0.01,-4.66237 3.9e-4,-24.72687 0,-28.89343 z"
             style="fill:#cce310;fill-opacity:1;fill-rule:evenodd;stroke:none;stroke-width:1px;stroke-linecap:butt;stroke-linejoin:miter;stroke-opacity:1" />
          <path
             style="fill:#cce310;fill-opacity:1;fill-rule:evenodd;stroke:none;stroke-width:1px;stroke-linecap:butt;stroke-linejoin:miter;stroke-opacity:1"
             d="m 240.00657,341.78711 c 1.46079,0 2.48633,0.86884 2.48633,2.28711 -0.012,4.66233 4.8e-4,24.72545 0,28.89343 l -3.01563,0 c -1.46079,0 -2.48632,-0.86884 -2.48632,-2.28711 0.01,-4.66237 -3.9e-4,-24.72687 0,-28.89343 z"
             id="path5018"
             inkscape:connector-curvature="0"
             sodipodi:nodetypes="sccsccs" />
        </g>
        <g
           style="fill:#cce310;fill-opacity:1"
           id="g5024"
           transform="translate(33.67596,6.1429902)">
          <path
             style="fill:#cce310;fill-opacity:1;fill-rule:evenodd;stroke:none;stroke-width:1px;stroke-linecap:butt;stroke-linejoin:miter;stroke-opacity:1"
             d="m 246.50394,352.71393 c 0,1.21438 -0.72228,2.06693 -1.90132,2.06693 -3.87588,-0.01 -17.36819,4e-4 -20.83311,0 l 0,-2.50695 c 0,-1.21438 0.72228,-2.06692 1.90132,-2.06692 3.87592,0.008 17.36937,-3.3e-4 20.83311,0 z"
             id="path5020"
             inkscape:connector-curvature="0"
             sodipodi:nodetypes="sccsccs" />
          <path
             sodipodi:nodetypes="sccsccs"
             inkscape:connector-curvature="0"
             id="path5022"
             d="m 246.50394,361.90825 c 0,-1.21438 -0.72228,-2.06693 -1.90132,-2.06693 -3.87588,0.01 -17.36819,-4e-4 -20.83311,0 l 0,2.50695 c 0,1.21438 0.72228,2.06692 1.90132,2.06692 3.87592,-0.008 17.36937,3.3e-4 20.83311,0 z"
             style="fill:#cce310;fill-opacity:1;fill-rule:evenodd;stroke:none;stroke-width:1px;stroke-linecap:butt;stroke-linejoin:miter;stroke-opacity:1" />
        </g>
      </g>
      <path
         sodipodi:nodetypes="csccccscc"
         inkscape:connector-curvature="0"
         id="path5052"
         style="font-style:normal;font-variant:normal;font-weight:900;font-stretch:normal;font-size:medium;line-height:125%;font-family:Lato;-inkscape-font-specification:'Lato Heavy';letter-spacing:0px;word-spacing:0px;fill:#cce310;fill-opacity:1;stroke:none;stroke-width:1px;stroke-linecap:butt;stroke-linejoin:miter;stroke-opacity:1"
         d="m 262.586,384.21971 -1.8333,14.93099 c -0.15963,1.3001 -0.39599,2.59312 -0.70946,3.87905 -0.31174,1.27182 -0.67614,2.57192 -1.0936,3.90025 l -4.45137,0 c -0.0913,-1.32833 -0.13652,-2.62843 -0.13582,-3.90025 0.002,-1.28593 0.0835,-2.57895 0.24312,-3.87905 l 1.8333,-14.93099 z" />
      <circle
         r="3.0804238"
         cy="412.33325"
         cx="255.97104"
         id="path5063"
         style="color:#000000;display:inline;overflow:visible;visibility:visible;opacity:1;fill:#cce310;fill-opacity:1;fill-rule:nonzero;stroke:none;stroke-width:0.1;stroke-linecap:round;stroke-linejoin:round;stroke-miterlimit:4;stroke-dasharray:none;stroke-dashoffset:0;stroke-opacity:1;marker:none;enable-background:accumulate" />
    </g>
  </g>
</svg>
